<svg width="16" height="16" viewBox="0 0 16 16" fill="none" xmlns="http://www.w3.org/2000/svg">
<path d="M8 1.33325C11.3137 1.33325 14 4.01955 14 7.33325V12.3333C14 13.6219 12.9553 14.6666 11.6667 14.6666C10.8667 14.6666 10.1609 14.2641 9.74047 13.6506C9.3984 14.2571 8.747 14.6666 8 14.6666C7.253 14.6666 6.6016 14.2571 6.25819 13.6502C5.83913 14.2641 5.13323 14.6666 4.33333 14.6666C3.08763 14.6666 2.06991 13.6904 2.00345 12.4613L2 12.3333V7.33325C2 4.01955 4.68629 1.33325 8 1.33325ZM8 2.66659C5.47637 2.66659 3.4206 4.66977 3.33604 7.17279L3.33333 7.33325L3.33285 12.2973L3.33484 12.3893C3.36336 12.9167 3.80167 13.3333 4.33333 13.3333C4.63453 13.3333 4.91101 13.2004 5.09803 12.9765L5.15697 12.8985C5.71355 12.0831 6.93233 12.1343 7.4186 12.9935C7.53687 13.2025 7.75633 13.3333 8 13.3333C8.2434 13.3333 8.4622 13.2029 8.57913 12.9955C9.04613 12.1677 10.1932 12.0877 10.7757 12.81L10.8404 12.8969C11.0267 13.1689 11.3317 13.3333 11.6667 13.3333C12.1865 13.3333 12.6136 12.9367 12.6621 12.4296L12.6667 12.3333V7.33325C12.6667 4.75593 10.5773 2.66659 8 2.66659ZM8 7.99992C8.7364 7.99992 9.33333 8.74612 9.33333 9.66658C9.33333 10.5871 8.7364 11.3333 8 11.3333C7.2636 11.3333 6.66667 10.5871 6.66667 9.66658C6.66667 8.74612 7.2636 7.99992 8 7.99992ZM6.33333 5.33325C6.8856 5.33325 7.33333 5.78097 7.33333 6.33325C7.33333 6.88552 6.8856 7.33325 6.33333 7.33325C5.78105 7.33325 5.33333 6.88552 5.33333 6.33325C5.33333 5.78097 5.78105 5.33325 6.33333 5.33325ZM9.66667 5.33325C10.2189 5.33325 10.6667 5.78097 10.6667 6.33325C10.6667 6.88552 10.2189 7.33325 9.66667 7.33325C9.1144 7.33325 8.66667 6.88552 8.66667 6.33325C8.66667 5.78097 9.1144 5.33325 9.66667 5.33325Z" fill="#fff"/>
</svg>
